<svg xmlns="http://www.w3.org/2000/svg" xmlns:xlink="http://www.w3.org/1999/xlink" aria-hidden="true" role="img" width="24" height="24" preserveAspectRatio="xMidYMid meet" viewBox="0 0 48 48"><g fill="none" stroke="#4a5568" stroke-width="4" stroke-linecap="round" stroke-linejoin="round"><path d="M13 35H7v6"/><path d="M41 41h-6v-6"/><path d="M35 13h6V7"/><path d="M7 7h6v6"/><path d="M13 7.294C7.578 10.871 4 17.018 4 24c0 1.02.076 2.021.223 3"/><path d="M27 43.776A20.16 20.16 0 0 1 24 44c-6.982 0-13.129-3.578-16.706-9"/><path d="M43.776 21c.148.979.224 1.98.224 3c0 6.982-3.578 13.129-9 16.706"/><path d="M21 4.223A20.16 20.16 0 0 1 24 4c6.982 0 13.129 3.578 16.706 9"/></g></svg>