<svg xmlns="http://www.w3.org/2000/svg" xmlns:xlink="http://www.w3.org/1999/xlink" aria-hidden="true" role="img" width="24" height="24" preserveAspectRatio="xMidYMid meet" viewBox="0 0 24 24"><path d="M13.843 15.87A4 4 0 0 0 20 12.5c0-1.238-.623-3.136-1.58-4.698C17.513 6.322 16.524 5.5 16 5.5s-1.513.822-2.42 2.302a12.214 12.214 0 0 0-.935 1.884a12.584 12.584 0 0 0-1.277-2.024C12.522 5.41 14.26 3.5 16 3.5c3 0 6 5.686 6 9a6 6 0 0 1-8.943 5.23c.36-.563.63-1.19.786-1.86zM8 20.5a6 6 0 0 1-6-6c0-3.314 3-9 6-9s6 5.686 6 9a6 6 0 0 1-6 6zm0-2a4 4 0 0 0 4-4c0-1.238-.623-3.136-1.58-4.698C9.513 8.322 8.524 7.5 8 7.5s-1.513.822-2.42 2.302C4.623 11.364 4 13.262 4 14.5a4 4 0 0 0 4 4z" fill="#4a5568"/></svg>