<svg xmlns="http://www.w3.org/2000/svg" xmlns:xlink="http://www.w3.org/1999/xlink" aria-hidden="true" role="img" width="1em" height="1em" preserveAspectRatio="xMidYMid meet" viewBox="0 0 256 256"><path d="M219.92 39.216c-.022-.113-.064-.218-.096-.327a2.33 2.33 0 0 0-.324-.788c-.058-.107-.105-.218-.174-.32a3.993 3.993 0 0 0-.493-.604l-.004-.005a4.016 4.016 0 0 0-.612-.5c-.09-.06-.187-.1-.28-.151a3.98 3.98 0 0 0-.41-.216c-.116-.048-.238-.074-.357-.11a3.891 3.891 0 0 0-.39-.116a4.057 4.057 0 0 0-.643-.065c-.046-.002-.09-.014-.137-.014h-48a4 4 0 0 0 0 8h38.343l-51.507 51.506a76 76 0 1 0 5.657 5.657L212 49.657V88a4 4 0 0 0 8 0V40.001a4.03 4.03 0 0 0-.08-.785zm-67.837 160.868a67.968 67.968 0 1 1 0-96.168a68.076 68.076 0 0 1 0 96.168z" fill="#4a5568"/></svg>