<svg xmlns="http://www.w3.org/2000/svg" xmlns:xlink="http://www.w3.org/1999/xlink" aria-hidden="true" role="img" width="1em" height="1em" preserveAspectRatio="xMidYMid meet" viewBox="0 0 24 24"><g fill="none"><path d="M5.75 3a.75.75 0 0 0 0 1.5h12.5a.75.75 0 0 0 0-1.5H5.75z" fill="#4a5568"/><path d="M9.222 14.219a.75.75 0 0 1 .976-.073l.084.073l1.22 1.221v-3.07l-.002-.026V8.56l-1.22 1.221l-.084.073a.75.75 0 0 1-1.049-1.05l.073-.084l2.367-2.37a.77.77 0 0 1 .664-.35c.252 0 .475.109.611.276l.053.075l2.367 2.37l.073.084a.75.75 0 0 1 .007.882l-.08.094l-.084.073a.75.75 0 0 1-.883.007l-.094-.08L13 8.56v3.07l.002.026v3.784l1.221-1.221a.75.75 0 0 1 .977-.073l.084.073a.75.75 0 0 1 .072.976l-.072.085l-2.367 2.37a.77.77 0 0 1-.664.35a.77.77 0 0 1-.664-.35l-2.367-2.37a.75.75 0 0 1 0-1.061z" fill="#4a5568"/><path d="M5 20.25a.75.75 0 0 1 .75-.75h12.5a.75.75 0 0 1 0 1.5H5.75a.75.75 0 0 1-.75-.75z" fill="#4a5568"/></g></svg>